<?xml version="1.0" standalone="no"?>
<!DOCTYPE svg PUBLIC "-//W3C//DTD SVG 20010904//EN"
 "http://www.w3.org/TR/2001/REC-SVG-20010904/DTD/svg10.dtd">
<svg version="1.0" xmlns="http://www.w3.org/2000/svg"
 width="512.000000pt" height="512.000000pt" viewBox="0 0 512.000000 512.000000"
 preserveAspectRatio="xMidYMid meet">

<g transform="translate(0.000000,512.000000) scale(0.100000,-0.100000)"
fill="white" stroke="none">
<path d="M722 5107 c-82 -30 -140 -110 -162 -222 -8 -44 -10 -670 -8 -2355 3
-2258 3 -2296 23 -2350 27 -75 104 -154 165 -170 58 -16 128 -7 194 23 86 40
3475 2251 3531 2304 74 70 100 129 99 228 0 93 -23 151 -83 212 -20 21 -817
547 -1771 1168 -1336 870 -1750 1135 -1800 1152 -71 25 -137 28 -188 10z
m1832 -1522 c1224 -773 1613 -1023 1603 -1031 -16 -15 -3234 -2044 -3241
-2044 -3 0 -6 925 -6 2055 0 1748 2 2055 14 2048 7 -4 741 -467 1630 -1028z"/>
</g>
</svg>
